<svg xmlns="http://www.w3.org/2000/svg" viewBox="0 0 34 41"><path fill="#39db4a" d="M8 0C3.568 0 0 3.568 0 8v25c0 4.432 3.568 8 8 8h18c4.432 0 8-3.568 8-8V8c0-4.432-3.568-8-8-8zm15.266 8.518q.781 0 1.156.068.408.034.885.307.51.27.713.918.204.646.205 1.734-.001 1.087-.205 1.732-.203.646-.713.918-.51.239-.918.307-.376.034-1.192.033H12.795v3.436h6.697q.816-.002 1.19.066.408.034.918.307.884.51.884 2.685 0 2.38-1.293 2.823-.543.17-1.734.17h-6.662v6.425q0 .817-.068 1.192c-.023.249-.039.528-.311.8l-.002.002c-.11.091-1.232-.002-1.646-.002q-2.38 0-2.788-1.29-.205-.545-.205-1.735V12.51q0-1.734.647-2.346.645-.646 2.447-.646z"/></svg>