<svg xmlns="http://www.w3.org/2000/svg" viewBox="0 0 106.546 41"><path fill="#39db4a" d="M8 0C3.568 0 0 3.568 0 8v25c0 4.432 3.568 8 8 8h18c4.432 0 8-3.568 8-8V8c0-4.432-3.568-8-8-8Zm15.266 8.518q.781 0 1.156.068.408.034.885.307.51.27.713.918.204.646.205 1.734-.001 1.087-.205 1.732-.203.646-.713.918-.51.239-.918.307-.376.034-1.192.033H12.795v3.436h6.697q.816-.002 1.19.066.408.034.918.307.884.51.884 2.685 0 2.38-1.293 2.823-.543.17-1.734.17h-6.662v6.425q0 .817-.068 1.192c-.023.249-.039.528-.311.8l-.002.002c-.11.091-1.232-.002-1.646-.002q-2.38 0-2.788-1.29-.205-.545-.205-1.735V12.51q0-1.734.647-2.346.645-.646 2.447-.646z"/><path fill="currentColor" d="M51.053 9.064c2.763 0-1.052 1.284 2.448 4.72q3.052 2.996 3.052 7.448 0 4.425-2.912 7.56-2.91 3.108-7.168 3.108-4.255 0-7.252-3.08-2.968-3.08-2.968-7.336 0-2.325.84-4.34.84-2.044 2.24-3.416a10.5 10.5 0 0 1 3.22-2.156c1.214-.523 7.212-2.508 8.5-2.508m-9.844 12.28q0 2.492 1.596 4.06 1.624 1.54 3.612 1.54t3.584-1.512 1.596-4.06q.001-2.548-1.624-4.088-1.595-1.54-3.584-1.54-1.988 0-3.584 1.568-1.596 1.54-1.596 4.032m27.367-10.556q4.145 0 7.196 2.996t3.052 7.448q0 4.425-2.912 7.56-2.911 3.108-7.168 3.108-4.255 0-7.252-3.08-2.967-3.08-2.968-7.336 0-2.325.84-4.34.84-2.044 2.24-3.416a10.5 10.5 0 0 1 3.22-2.156 9.4 9.4 0 0 1 3.752-.784M63.48 21.344q0 2.492 1.596 4.06 1.625 1.54 3.612 1.54t3.584-1.512q1.596-1.512 1.596-4.06t-1.624-4.088q-1.595-1.54-3.584-1.54-1.988 0-3.584 1.568-1.596 1.54-1.596 4.032m20.227-9.968 5.18.028q4.06 0 7.14 2.94 3.08 2.912 3.08 7.196 0 4.255-3.024 7.308-2.996 3.052-7.28 3.052H83.68q-1.708 0-2.128-.7-.336-.589-.336-1.792V13.84q0-.672.028-.98.056-.308.28-.728.393-.756 2.184-.756m5.18 15.568q2.016 0 3.64-1.484 1.624-1.512 1.624-3.78t-1.597-3.78q-1.568-1.54-3.696-1.54h-2.688v10.584zM101.49 13.84q0-.645.028-.952a2.5 2.5 0 0 1 .28-.756q.392-.756 2.184-.756 1.96 0 2.324 1.036.14.476.14 1.456v15.568q0 .672-.056.98-.029.308-.252.728-.392.756-2.184.756-1.96 0-2.296-1.064-.168-.448-.168-1.428z"/></svg>